<?xml version="1.0" standalone="no"?>
<!DOCTYPE svg PUBLIC "-//W3C//DTD SVG 20010904//EN"
 "http://www.w3.org/TR/2001/REC-SVG-20010904/DTD/svg10.dtd">
<svg version="1.0" xmlns="http://www.w3.org/2000/svg"
 width="1080.000000pt" height="1080.000000pt" viewBox="0 0 1080.000000 1080.000000"
 preserveAspectRatio="xMidYMid meet">

<g transform="translate(0.000000,1080.000000) scale(0.100000,-0.100000)"
fill="#000000" stroke="none">
<path d="M4341 6260 c-302 -42 -560 -243 -675 -526 -67 -166 -74 -390 -17
-564 73 -226 230 -404 442 -505 83 -39 212 -75 271 -75 l38 0 0 320 0 320
-110 0 -110 0 0 130 0 130 109 0 108 0 5 143 c4 126 8 150 30 198 67 145 180
197 401 182 l97 -6 0 -119 0 -118 -99 0 c-91 0 -102 -2 -128 -24 -27 -24 -28
-27 -31 -140 l-4 -116 126 0 c69 0 126 -4 126 -8 0 -4 -7 -62 -15 -127 -8 -66
-15 -121 -15 -122 0 -2 -49 -3 -110 -3 l-110 0 0 -306 0 -306 32 6 c53 10 188
82 262 137 165 126 285 334 317 549 51 353 -142 714 -466 870 -144 70 -325
100 -474 80z"/>
<path d="M1604 6200 c-181 -26 -303 -122 -363 -285 -34 -90 -43 -248 -35 -582
l7 -293 68 0 68 0 0 358 c1 197 5 382 11 411 14 74 57 149 108 188 79 60 111
65 477 70 477 7 574 -9 659 -109 68 -79 70 -89 74 -523 4 -395 -1 -474 -34
-537 -42 -81 -134 -144 -224 -155 l-49 -6 28 -41 c16 -22 32 -52 36 -65 6 -21
11 -23 49 -17 153 25 283 158 327 336 19 74 20 809 2 886 -36 151 -107 251
-222 313 -103 54 -168 61 -574 60 -199 -1 -385 -5 -413 -9z"/>
<path d="M2398 5915 c-39 -22 -54 -75 -33 -118 29 -61 95 -74 145 -29 87 77
-9 202 -112 147z"/>
<path d="M1930 5807 c-152 -36 -265 -140 -311 -288 -23 -74 -24 -145 -3 -224
29 -115 108 -209 222 -267 64 -31 72 -33 177 -33 103 0 114 2 177 32 88 41
160 113 201 201 30 62 32 75 32 172 0 94 -3 111 -28 164 -86 185 -281 286
-467 243z m204 -162 c50 -24 100 -74 128 -128 17 -32 22 -59 22 -117 0 -65 -4
-83 -29 -129 -53 -96 -150 -148 -262 -139 -144 11 -246 122 -247 268 0 109 57
198 159 247 41 20 62 23 120 21 42 -2 86 -11 109 -23z"/>
</g>
</svg>
